<svg width="23" height="24" viewBox="0 0 23 24" fill="none" xmlns="http://www.w3.org/2000/svg">
<path d="M18.1394 11.7869H19.8372C20.221 11.7869 20.5333 11.479 20.5333 11.1005V9.42642C20.5333 9.04795 20.221 8.74003 19.8372 8.74003H18.1394C17.7556 8.74003 17.4433 9.04795 17.4433 9.42642V11.1005C17.4433 11.479 17.7556 11.7869 18.1394 11.7869ZM18.1564 9.44316H19.8202V11.0838H18.1564V9.44316ZM18.1394 16.24H19.8372C20.221 16.24 20.5333 15.9321 20.5333 15.5536V13.8795C20.5333 13.5011 20.221 13.1932 19.8372 13.1932H18.1394C17.7556 13.1932 17.4433 13.5011 17.4433 13.8795V15.5536C17.4433 15.9321 17.7556 16.24 18.1394 16.24ZM18.1564 13.8963H19.8202V15.5369H18.1564V13.8963ZM13.2945 11.7869H14.9922C15.3761 11.7869 15.6884 11.479 15.6884 11.1005V9.42642C15.6884 9.04795 15.3761 8.74003 14.9922 8.74003H13.2945C12.9106 8.74003 12.5984 9.04795 12.5984 9.42642V11.1005C12.5984 11.479 12.9106 11.7869 13.2945 11.7869ZM13.3114 9.44316H14.9753V11.0838H13.3114V9.44316ZM5.30237 17.4375H3.60458C3.22075 17.4375 2.90847 17.7454 2.90847 18.1239V19.798C2.90847 20.1765 3.22075 20.4844 3.60458 20.4844H5.30237C5.6862 20.4844 5.99848 20.1765 5.99848 19.798V18.1239C5.99848 17.7454 5.6862 17.4375 5.30237 17.4375ZM5.2854 19.7812H3.62155V18.1406H5.2854V19.7812ZM5.30237 8.74003H3.60458C3.22075 8.74003 2.90847 9.04795 2.90847 9.42642V11.1005C2.90847 11.479 3.22075 11.7869 3.60458 11.7869H5.30237C5.6862 11.7869 5.99848 11.479 5.99848 11.1005V9.42642C5.99848 9.04791 5.6862 8.74003 5.30237 8.74003ZM5.2854 11.0838H3.62155V9.44316H5.2854V11.0838ZM13.2945 16.1356H14.9922C15.3761 16.1356 15.6884 15.8277 15.6884 15.4493V13.7752C15.6884 13.3967 15.3761 13.0888 14.9922 13.0888H13.2945C12.9106 13.0888 12.5984 13.3967 12.5984 13.7752V15.4493C12.5984 15.8277 12.9106 16.1356 13.2945 16.1356ZM13.3114 13.7919H14.9753V15.4325H13.3114V13.7919ZM20.8874 1.60659H19.363V1.06908C19.363 0.479578 18.8767 0 18.2788 0H18.1151C17.5173 0 17.0309 0.479578 17.0309 1.06908V1.60659H6.41083V1.06908C6.41083 0.479578 5.92446 0 5.32662 0H5.1629C4.56505 0 4.07868 0.479578 4.07868 1.06908V1.60659H2.55436C1.57007 1.60659 0.769287 2.3962 0.769287 3.36675V22.2422C0.769287 23.2115 1.56898 24 2.55198 24H20.8899C21.8729 24 22.6726 23.2115 22.6726 22.2422V3.36675C22.6725 2.3962 21.8717 1.60659 20.8874 1.60659ZM17.744 1.06908C17.744 0.867281 17.9105 0.703125 18.1152 0.703125H18.2789C18.4835 0.703125 18.65 0.867281 18.65 1.06908V1.60659H17.744V1.06908ZM4.79181 1.06908C4.79181 0.867281 4.95829 0.703125 5.16294 0.703125H5.32667C5.53132 0.703125 5.6978 0.867281 5.6978 1.06908V1.60659H4.79186V1.06908H4.79181ZM21.9595 22.2422C21.9595 22.8238 21.4796 23.2969 20.8898 23.2969H2.55194C1.96212 23.2969 1.48232 22.8238 1.48232 22.2422V22.24C1.78105 22.4619 2.15237 22.5938 2.55436 22.5938H17.01C17.4868 22.5938 17.9351 22.4107 18.2723 22.0782L21.9595 18.4425V22.2422ZM17.9085 21.4425C17.9364 21.3288 17.9516 21.2101 17.9516 21.088V18.7413C17.9516 18.2988 18.3168 17.9387 18.7656 17.9387H21.1455C21.2693 17.9387 21.3897 17.9237 21.505 17.8962L17.9085 21.4425ZM21.9595 6.63066H6.76737C6.57046 6.63066 6.41083 6.78806 6.41083 6.98222C6.41083 7.17637 6.57046 7.33378 6.76737 7.33378H21.9595V16.4331C21.9595 16.8756 21.5943 17.2357 21.1455 17.2357H18.7656C17.9236 17.2357 17.2385 17.9111 17.2385 18.7413V21.0881C17.2385 21.5306 16.8734 21.8907 16.4246 21.8907H2.55436C1.96327 21.8907 1.48237 21.4165 1.48237 20.8336V7.33378H5.34121C5.53812 7.33378 5.69775 7.17637 5.69775 6.98222C5.69775 6.78806 5.53812 6.63066 5.34121 6.63066H1.48232V3.36675C1.48232 2.78391 1.96322 2.30972 2.55431 2.30972H4.07868V3.34341C4.07868 3.93291 4.56505 4.41248 5.1629 4.41248C5.3598 4.41248 5.51943 4.25508 5.51943 4.06092C5.51943 3.86677 5.3598 3.70936 5.1629 3.70936C4.95824 3.70936 4.79176 3.5452 4.79176 3.34341V2.30972H17.0309V3.34341C17.0309 3.93291 17.5173 4.41248 18.1152 4.41248C18.3121 4.41248 18.4717 4.25508 18.4717 4.06092C18.4717 3.86677 18.3121 3.70936 18.1152 3.70936C17.9105 3.70936 17.744 3.5452 17.744 3.34341V2.30972H20.8875C21.4786 2.30972 21.9595 2.78391 21.9595 3.36675V6.63066ZM5.30237 13.0888H3.60458C3.22075 13.0888 2.90847 13.3967 2.90847 13.7752V15.4493C2.90847 15.8277 3.22075 16.1356 3.60458 16.1356H5.30237C5.6862 16.1356 5.99848 15.8277 5.99848 15.4493V13.7752C5.99848 13.3966 5.6862 13.0888 5.30237 13.0888ZM5.2854 15.4325H3.62155V13.7919H5.2854V15.4325ZM8.44952 11.7869H10.1473C10.5311 11.7869 10.8434 11.479 10.8434 11.1005V9.42642C10.8434 9.04795 10.5311 8.74003 10.1473 8.74003H8.44952C8.06569 8.74003 7.75341 9.04795 7.75341 9.42642V11.1005C7.75341 11.479 8.06569 11.7869 8.44952 11.7869ZM8.46649 9.44316H10.1303V11.0838H8.46649V9.44316ZM13.311 19.7812C13.3022 19.5948 13.1461 19.4464 12.9548 19.4464C12.7579 19.4464 12.5983 19.6038 12.5983 19.798C12.5983 20.1765 12.9106 20.4844 13.2944 20.4844H14.9922C15.376 20.4844 15.6883 20.1765 15.6883 19.798V18.1239C15.6883 17.7454 15.376 17.4375 14.9922 17.4375H13.2944C12.9106 17.4375 12.5983 17.7454 12.5983 18.1239V18.6067C12.5983 18.8009 12.7579 18.9583 12.9548 18.9583C13.1517 18.9583 13.3114 18.8009 13.3114 18.6067V18.1406H14.9752V19.7812H13.311ZM8.44952 16.1356H10.1473C10.5311 16.1356 10.8434 15.8277 10.8434 15.4493V13.7752C10.8434 13.3967 10.5311 13.0888 10.1473 13.0888H8.44952C8.06569 13.0888 7.75341 13.3967 7.75341 13.7752V15.4493C7.75341 15.8277 8.06569 16.1356 8.44952 16.1356ZM8.46649 13.7919H10.1303V15.4325H8.46649V13.7919ZM8.44952 20.4844H10.1473C10.5311 20.4844 10.8434 20.1765 10.8434 19.798V18.1239C10.8434 17.7454 10.5311 17.4375 10.1473 17.4375H8.44952C8.06569 17.4375 7.75341 17.7454 7.75341 18.1239V19.798C7.75341 20.1765 8.06569 20.4844 8.44952 20.4844ZM8.46649 18.1406H10.1303V19.7812H8.46649V18.1406Z" fill="black"/>
</svg>
