<svg width="30" height="30" viewBox="0 0 30 30" fill="none" xmlns="http://www.w3.org/2000/svg">
<g clip-path="url(#clip0_59_1526)">
<path d="M15 30C9.83002 30 5.625 25.795 5.625 20.625V7.5C5.625 6.80878 6.18507 6.25008 6.87492 6.25008C7.565 6.25008 8.12508 6.80878 8.12508 7.5V20.625C8.12508 24.4151 11.2088 27.4999 15 27.4999C18.7912 27.4999 21.8749 24.4151 21.8749 20.625V6.87492C21.8749 4.46251 19.9125 2.50008 17.5001 2.50008C15.0874 2.50008 13.125 4.46251 13.125 6.87492V19.3751C13.125 20.4087 13.9661 21.2501 15 21.2501C16.0339 21.2501 16.875 20.4087 16.875 19.3751V7.5C16.875 6.80878 17.4351 6.25008 18.1249 6.25008C18.815 6.25008 19.3751 6.80878 19.3751 7.5V19.3751C19.3751 21.7875 17.4124 23.7499 15 23.7499C12.5876 23.7499 10.6249 21.7875 10.6249 19.3751V6.87492C10.6249 3.0851 13.7086 0 17.5001 0C21.2913 0 24.375 3.0851 24.375 6.87492V20.625C24.375 25.795 20.17 30 15 30Z" fill="#FFAF00"/>
</g>
<defs>
<clipPath id="clip0_59_1526">
<rect width="30" height="30" fill="white"/>
</clipPath>
</defs>
</svg>
