<svg width="36" height="36" viewBox="0 0 36 36" fill="none" xmlns="http://www.w3.org/2000/svg">
<path d="M9.93 16.185C12.09 20.43 15.57 23.895 19.815 26.07L23.115 22.77C23.52 22.365 24.12 22.23 24.645 22.41C26.325 22.965 28.14 23.265 30 23.265C30.825 23.265 31.5 23.94 31.5 24.765V30C31.5 30.825 30.825 31.5 30 31.5C15.915 31.5 4.5 20.085 4.5 6C4.5 5.175 5.175 4.5 6 4.5H11.25C12.075 4.5 12.75 5.175 12.75 6C12.75 7.875 13.05 9.675 13.605 11.355C13.77 11.88 13.65 12.465 13.23 12.885L9.93 16.185Z" fill="#8A8C90"/>
</svg>
